# File created by Blade
# Date/Time:  Wed Jan 21 16:20:01 2015
# Frame Rate: 120.000 fps
#------------------------------------------------------
:FULLY-SPECIFIED
:DEGREES
698
root 12.462237 35.653617 -19.985996 -187.592520 -56.964223 -186.221376
Spine -3.580494 -44.573105 -2.323142
Head 57.040885 -52.409877 -32.913960
LeftShoulder -12.180445 -21.638211 -1.854579
LeftArm -18.211443 37.187681 -68.546254
LeftForeArm 41.753314 0.000000 65.764445
LeftHand -1.141869 -0.000000 -27.920217
LeftHandThumb1 -26.253704 0.000000 33.147579
RightShoulder -17.817934 -11.346894 -3.446389
RightArm -27.389819 47.011856 29.015338
RightForeArm -6.860798 -0.000000 12.349346
RightHand -8.574901 0.000000 -4.375684
RightHandThumb1 -24.326973 -0.000000 -32.862282
LeftUpLeg 24.289457 -25.215089 -19.031916
LeftLeg -12.148935 -0.000000 0.000000
LeftFoot 1.590780 6.942847 -0.123082
LeftToeBase -159.002458 -0.000000 0.000000
RightUpLeg -69.958247 36.421347 17.530186
RightLeg 117.064263 -0.000000 -0.000000
RightFoot 28.526294 -20.809395 -16.159931
RightToeBase 23.831097 -0.000000 -0.000000
699
root 12.440498 35.660038 -20.001622 -187.751839 -57.191760 -186.161924
Spine -3.460599 -44.588466 -2.410134
Head 57.174297 -52.723753 -32.933111
LeftShoulder -12.181319 -21.597460 -1.815964
LeftArm -18.092072 37.225187 -68.494153
LeftForeArm 41.743194 -0.000000 65.791148
LeftHand -1.206293 -0.000000 -28.154362
LeftHandThumb1 -26.253704 0.000000 33.147579
RightShoulder -17.770106 -11.172831 -3.413680
RightArm -27.770046 46.918108 28.708774
RightForeArm -6.668930 0.000000 12.267339
RightHand -8.482377 -0.000000 -4.287646
RightHandThumb1 -24.326973 -0.000000 -32.862282
LeftUpLeg 24.464038 -25.192862 -19.048969
LeftLeg -12.144611 -0.000000 0.000000
LeftFoot 1.623357 6.798948 -0.143345
LeftToeBase -158.867444 -0.000000 0.000000
RightUpLeg -69.997296 36.404982 17.491277
RightLeg 117.030242 -0.000000 -0.000000
RightFoot 28.432707 -20.696753 -16.396853
RightToeBase 24.632795 -0.000000 -0.000000
700
root 12.416698 35.667472 -20.020564 -187.947123 -57.415991 -186.086702
Spine -3.326666 -44.595503 -2.492060
Head 57.292161 -52.986642 -32.967169
LeftShoulder -12.160251 -21.587577 -1.801958
LeftArm -18.076076 37.241559 -68.458951
LeftForeArm 41.835054 -0.000000 65.921138
LeftHand -1.319390 0.000000 -28.027185
LeftHandThumb1 -26.253704 0.000000 33.147579
RightShoulder -17.799884 -11.212001 -3.393621
RightArm -27.859100 47.027107 28.677037
RightForeArm -6.520968 0.000000 12.198282
RightHand -8.592112 -0.000000 -4.378162
RightHandThumb1 -24.326973 -0.000000 -32.862282
LeftUpLeg 24.674617 -25.153910 -19.068024
LeftLeg -12.150707 -0.000000 0.000000
LeftFoot 1.652606 6.658328 -0.195967
LeftToeBase -158.956413 -0.000000 0.000000
RightUpLeg -70.011739 36.389877 17.475806
RightLeg 116.992177 -0.000000 -0.000000
RightFoot 28.460129 -20.712046 -16.369341
RightToeBase 24.131641 -0.000000 -0.000000
701
root 12.395440 35.673297 -20.036315 -188.121066 -57.610731 -185.978059
Spine -3.263191 -44.557684 -2.491348
Head 57.374126 -53.238256 -32.983567
LeftShoulder -12.146805 -21.553161 -1.762763
LeftArm -17.941288 37.194077 -68.440101
LeftForeArm 41.827689 -0.000000 65.877205
LeftHand -1.153886 0.000000 -28.107273
LeftHandThumb1 -26.253704 0.000000 33.147579
RightShoulder -17.835885 -11.332390 -3.367719
RightArm -27.899301 47.219193 28.679823
RightForeArm -6.211528 -0.000000 12.083325
RightHand -8.601796 0.000000 -4.625894
RightHandThumb1 -24.326973 -0.000000 -32.862282
LeftUpLeg 24.828131 -25.124203 -19.048495
LeftLeg -12.164186 -0.000000 0.000000
LeftFoot 1.679130 6.530313 -0.180055
LeftToeBase -158.941621 -0.000000 0.000000
RightUpLeg -70.083604 36.405389 17.439167
RightLeg 116.943733 -0.000000 -0.000000
RightFoot 28.445610 -20.746751 -16.346630
RightToeBase 24.054060 -0.000000 -0.000000
